<?xml version="1.0" encoding="utf-8"?>
<!-- Generator: Adobe Illustrator 20.1.0, SVG Export Plug-In . SVG Version: 6.00 Build 0)  -->
<svg version="1.1" id="Capa_1" xmlns="http://www.w3.org/2000/svg" xmlns:xlink="http://www.w3.org/1999/xlink" x="0px" y="0px"
	 viewBox="0 0 512 512" style="enable-background:new 0 0 512 512;" xml:space="preserve">
<g>
	<g>
		<path style="fill:#F1592A;" d="M290.4,432l-109-168.5V128c0-5.9-4.8-10.7-10.7-10.7h-53.3c-5.9,0-10.7,4.8-10.7,10.7v135.8
			l-99.4,169C2.5,440.8,0,450,0,459.4c0,29,23.5,52.6,52.6,52.6h194.2c10,0,19.8-2.9,28.1-8.3C299,488.1,305.9,456,290.4,432z
			 M246.8,490.7H52.6c-5.6,0-11.1-1.5-15.9-4.3c-14.9-8.8-19.8-27.9-11.1-42.8l100.9-171.5c1-1.6,1.5-3.5,1.5-5.4v-128h32v128
			c0,2.1,0.6,4.1,1.7,5.8l110.7,171.1c3.2,4.9,4.9,10.7,4.9,16.6C277.3,477,263.7,490.7,246.8,490.7z"/>
	</g>
</g>
<g>
	<g>
		<path style="fill:#F1592A;" d="M153.7,310.1l-18.4-10.8l-90.6,154c-1,1.6-1.5,3.5-1.5,5.4c0,5.9,4.8,10.7,10.7,10.7H128V448H72.5
			L153.7,310.1z"/>
	</g>
</g>
<g>
	<g>
		<path style="fill:#F1592A;" d="M486.3,245.3H320c-23.6,0-42.7,19.1-42.7,42.7v170.7c0,29.4,23.9,53.3,53.3,53.3h96
			c29.4,0,53.3-23.9,53.3-53.3V313.7l24.5-24.5c4.8-4.8,7.5-11.4,7.5-18.2C512,256.9,500.5,245.3,486.3,245.3z M489.4,274.2
			l-27.6,27.6c-2,2-3.1,4.7-3.1,7.5v149.3c0,17.7-14.3,32-32,32h-96c-17.7,0-32-14.3-32-32V288c0-11.8,9.6-21.3,21.3-21.3h166.3
			c1.2,0,2.3,0.5,3.1,1.3C491.1,269.7,491.1,272.5,489.4,274.2z"/>
	</g>
</g>
<g>
	<g>
		<path style="fill:#F1592A;" d="M416,309.3V448h-32v21.3h42.7c5.9,0,10.7-4.8,10.7-10.7V309.3H416z"/>
	</g>
</g>
<g>
	<g>
		<path style="fill:#F1592A;" d="M298.7,154.5V10.7C298.7,4.8,293.9,0,288,0h-74.7c-5.9,0-10.7,4.8-10.7,10.7v146.9
			c-13,4-25.5,9.5-37.3,16.3l10.7,18.5c12.5-7.2,26-12.7,40-16.4c4.7-1.2,8-5.5,8-10.3V21.3h53.3v141.8c0,5.1,3.6,9.5,8.7,10.5
			c37.4,7.1,71,27.4,94.9,57.1l16.6-13.4C372.4,186,337.6,164,298.7,154.5z"/>
	</g>
</g>
<g>
	<g>
		<path style="fill:#F1592A;" d="M453.3,149.3c-20.6,0-37.3,16.7-37.3,37.3c0,20.6,16.7,37.3,37.3,37.3c20.6,0,37.3-16.7,37.3-37.3
			C490.7,166,474,149.3,453.3,149.3z M453.3,202.7c-8.8,0-16-7.2-16-16s7.2-16,16-16s16,7.2,16,16S462.2,202.7,453.3,202.7z"/>
	</g>
</g>
<g>
	<g>
		<path style="fill:#F1592A;" d="M416,74.7c-17.7,0-32,14.3-32,32s14.3,32,32,32s32-14.3,32-32S433.7,74.7,416,74.7z M416,117.3
			c-5.9,0-10.7-4.8-10.7-10.7S410.1,96,416,96c5.9,0,10.7,4.8,10.7,10.7S421.9,117.3,416,117.3z"/>
	</g>
</g>
<g>
	<g>
		<path style="fill:#F1592A;" d="M37.3,85.3C16.7,85.3,0,102,0,122.7C0,143.3,16.7,160,37.3,160s37.3-16.7,37.3-37.3
			C74.7,102,58,85.3,37.3,85.3z M37.3,138.7c-8.8,0-16-7.2-16-16s7.2-16,16-16s16,7.2,16,16S46.2,138.7,37.3,138.7z"/>
	</g>
</g>
<g>
	<g>
		<path style="fill:#F1592A;" d="M85.3,10.7c-17.7,0-32,14.3-32,32s14.3,32,32,32s32-14.3,32-32S103,10.7,85.3,10.7z M85.3,53.3
			c-5.9,0-10.7-4.8-10.7-10.7c0-5.9,4.8-10.7,10.7-10.7S96,36.8,96,42.7S91.2,53.3,85.3,53.3z"/>
	</g>
</g>
<g>
	<g>
		<rect x="320" y="309.3" style="fill:#F1592A;" width="32" height="21.3"/>
	</g>
</g>
<g>
	<g>
		<rect x="320" y="352" style="fill:#F1592A;" width="21.3" height="21.3"/>
	</g>
</g>
<g>
	<g>
		<rect x="320" y="394.7" style="fill:#F1592A;" width="32" height="21.3"/>
	</g>
</g>
<g>
	<g>
		<rect x="320" y="437.3" style="fill:#F1592A;" width="21.3" height="21.3"/>
	</g>
</g>
<g>
	<g>
		<rect x="21.3" y="192" style="fill:#F1592A;" width="21.3" height="21.3"/>
	</g>
</g>
<g>
	<g>
		<rect x="53.3" y="245.3" style="fill:#F1592A;" width="21.3" height="21.3"/>
	</g>
</g>
<g>
	<g>
		<rect x="234.7" y="288" style="fill:#F1592A;" width="21.3" height="21.3"/>
	</g>
</g>
<g>
	<g>
		<rect x="213.3" y="245.3" style="fill:#F1592A;" width="21.3" height="21.3"/>
	</g>
</g>
<g>
	<g>
		<rect x="202.7" y="202.7" style="fill:#F1592A;" width="21.3" height="21.3"/>
	</g>
</g>
<g>
	<g>
		<rect x="213.3" y="437.3" style="fill:#F1592A;" width="21.3" height="21.3"/>
	</g>
</g>
<g>
	<g>
		<rect x="181.3" y="394.7" style="fill:#F1592A;" width="21.3" height="21.3"/>
	</g>
</g>
</svg>
