<?xml version="1.0" encoding="utf-8"?>
<!-- Generator: Adobe Illustrator 20.1.0, SVG Export Plug-In . SVG Version: 6.00 Build 0)  -->
<svg version="1.1" id="Capa_1" xmlns="http://www.w3.org/2000/svg" xmlns:xlink="http://www.w3.org/1999/xlink" x="0px" y="0px"
	 viewBox="0 0 512 512" style="enable-background:new 0 0 512 512;" xml:space="preserve">
<style type="text/css">
	.st0{fill:#F1592A;}
</style>
<g>
	<g>
		<path class="st0" d="M286,382c-5.5,0-10,4.5-10,10s4.5,10,10,10s10-4.5,10-10C296,386.5,291.5,382,286,382z"/>
	</g>
</g>
<g>
	<g>
		<g>
			<path class="st0" d="M426.5,422l-8.2-24.6c24.3-26,37.7-59.7,37.7-95.4c0-63-42.1-118-101.2-135.3l24.5-42.5
				c2.8-4.8,1.1-10.9-3.7-13.7l-8.7-5l10-17.3l8.7,5c4.8,2.8,10.9,1.1,13.7-3.7l20-34.6c2.8-4.8,1.1-10.9-3.7-13.7l-69.3-40
				c-4.8-2.8-10.9-1.1-13.7,3.7l-20,34.6c-2.8,4.8-1.1,10.9,3.7,13.7l8.7,5l-10,17.3l-8.7-5c-4.8-2.8-10.9-1.1-13.7,3.7l-75,129.9
				l-8.7-5c-4.8-2.8-10.9-1.1-13.7,3.7l-20,34.6c-2.8,4.8-1.1,10.9,3.7,13.7l103.9,60c4.8,2.7,10.9,1.2,13.7-3.7l20-34.6
				c2.8-4.8,1.1-10.9-3.7-13.7l-8.7-5l7.4-12.8c34.9-2.5,64.3,25.5,64.3,60.6c0,10.7-2.8,20.9-8,30c-13-6.6-27.3-10-42-10
				c-20.9,0-41.3,7.1-57.7,20h-97.6c-19.1,0-36.2,10.6-44.7,27.6l-8.9,17.9c-1.5,3.1-1.4,6.8,0.4,9.7c1.8,2.9,5,4.7,8.5,4.7h106.1
				l-6.7,20H86v0c-16.5,0-30,13.5-30,30v50c0,5.5,4.5,10,10,10h380c5.5,0,10-4.5,10-10v-50C456,435.6,442.8,422.3,426.5,422z
				 M345,23.7l52,30L387,71c-11.6-6.7-38.5-22.2-52-30L345,23.7z M342.3,68.3l17.3,10l-10,17.3l-17.3-10L342.3,68.3z M284.3,288.8
				l-86.6-50l10-17.3c9.2,5.3,65.8,38,77.9,45c0,0,0,0,0,0c0,0,0,0,0,0l8.7,5L284.3,288.8z M287,244.2l-52-30l70-121.2
				c20.4,11.8,32.3,18.6,38.9,22.5c-1.5-0.9-2.7-1.6-2.8-1.6c0.3,0.1,4.2,2.4,15.9,9.2C346.6,140.8,295.7,229,287,244.2z
				 M323.1,221.6l21.3-36.9c53.5,13,91.6,61.3,91.6,117.3c0,27.1-9,52.9-25.5,73.9c-6-12.8-14.8-24.1-25.7-33
				c7.4-12.3,11.2-26.3,11.2-40.9C396,259.9,363.9,225.2,323.1,221.6z M326,342c31.9,0,59.6,20.5,69.5,50.1l10,29.9H246.5l10-29.9
				C266.6,361.9,294.8,342,326,342z M142.2,382c0.7-0.8,7.1-20.1,28.5-20.1h78.7c-4.3,6.2-7.9,13-10.6,20.1H142.2z M436,492H76v-40
				c0-5.5,4.5-10,10-10c8.2,0,323,0,340,0c5.5,0,10,4.5,10,10V492z"/>
			<path class="st0" d="M345.1,116.1c0.6,0.3,1.2,0.7,1.7,1C346.2,116.7,345.7,116.4,345.1,116.1z"/>
			<path class="st0" d="M345.1,116.1C345.1,116.1,345.1,116.1,345.1,116.1C345.1,116.1,345.1,116.1,345.1,116.1z"/>
			<path class="st0" d="M343.9,115.4C344,115.4,344,115.4,343.9,115.4C344,115.4,344,115.4,343.9,115.4z"/>
			<path class="st0" d="M344,115.5c0.4,0.2,0.7,0.4,1.1,0.6C344.7,115.9,344.4,115.7,344,115.5z"/>
			<path class="st0" d="M346.8,117.1c0.1,0.1,0.2,0.1,0.3,0.2C347,117.2,346.9,117.1,346.8,117.1z"/>
			<path class="st0" d="M350.9,119.5C351,119.5,351,119.5,350.9,119.5C351,119.5,351,119.5,350.9,119.5z"/>
			<path class="st0" d="M350.7,119.3c0.1,0.1,0.2,0.1,0.3,0.1C350.9,119.4,350.8,119.4,350.7,119.3z"/>
			<path class="st0" d="M351,119.5C351.1,119.6,351.1,119.6,351,119.5L351,119.5z"/>
			<path class="st0" d="M349.3,118.5c0.1,0,0.1,0.1,0.2,0.1C349.4,118.6,349.4,118.5,349.3,118.5z"/>
			<path class="st0" d="M349.5,118.6c0.5,0.3,0.9,0.5,1.2,0.7C350.4,119.2,350.1,118.9,349.5,118.6z"/>
			<path class="st0" d="M349,118.3c0.1,0.1,0.2,0.1,0.3,0.2C349.2,118.4,349.1,118.4,349,118.3z"/>
			<path class="st0" d="M347.1,117.2c0.7,0.4,1.4,0.8,1.9,1.1C348.4,118,347.7,117.6,347.1,117.2z"/>
		</g>
	</g>
</g>
<g>
	<g>
		<path class="st0" d="M366,382h-40c-5.5,0-10,4.5-10,10s4.5,10,10,10h40c5.5,0,10-4.5,10-10S371.5,382,366,382z"/>
	</g>
</g>
</svg>
