<?xml version="1.0" encoding="utf-8"?>
<!-- Generator: Adobe Illustrator 22.1.0, SVG Export Plug-In . SVG Version: 6.00 Build 0)  -->
<svg version="1.1" id="Layer_1" xmlns="http://www.w3.org/2000/svg" xmlns:xlink="http://www.w3.org/1999/xlink" x="0px" y="0px"
	 viewBox="0 0 388 102" style="enable-background:new 0 0 388 102;" xml:space="preserve">
<style type="text/css">
	.st0{fill:none;stroke:#D8DFEA;stroke-width:2;stroke-linecap:round;}
	.st1{fill:none;stroke:#D8DFEA;stroke-width:2;stroke-linecap:round;stroke-dasharray:0.9948,3.9792;}
	.st2{fill:#FFFFFF;}
	.st3{fill:#F1592A;}
</style>
<g>
	<g>
		<line class="st0" x1="387.6" y1="1.1" x2="387.2" y2="1.4"/>
		<polyline class="st1" points="384,3.8 257.2,97.8 4.2,97.8 		"/>
		<line class="st0" x1="2.2" y1="97.8" x2="1.7" y2="97.8"/>
	</g>
</g>
<rect x="302.3" y="25.3" class="st2" width="43" height="50.8"/>
<g>
	<g>
		<path class="st3" d="M327.7,60.2c-0.5,0-0.9,0.4-0.9,0.9c0,0.5,0.4,0.9,0.9,0.9c0.5,0,0.9-0.4,0.9-0.9
			C328.5,60.6,328.2,60.2,327.7,60.2z"/>
	</g>
</g>
<g>
	<g>
		<g>
			<path class="st3" d="M339.8,63.7l-0.7-2.1c2.1-2.2,3.2-5.1,3.2-8.2c0-5.4-3.6-10.1-8.7-11.6l2.1-3.6c0.2-0.4,0.1-0.9-0.3-1.2
				l-0.7-0.4l0.9-1.5l0.7,0.4c0.4,0.2,0.9,0.1,1.2-0.3l1.7-3c0.2-0.4,0.1-0.9-0.3-1.2l-6-3.4c-0.4-0.2-0.9-0.1-1.2,0.3l-1.7,3
				c-0.2,0.4-0.1,0.9,0.3,1.2l0.7,0.4l-0.9,1.5l-0.7-0.4c-0.4-0.2-0.9-0.1-1.2,0.3l-6.4,11.2l-0.7-0.4c-0.4-0.2-0.9-0.1-1.2,0.3
				l-1.7,3c-0.2,0.4-0.1,0.9,0.3,1.2l8.9,5.2c0.4,0.2,0.9,0.1,1.2-0.3l1.7-3c0.2-0.4,0.1-0.9-0.3-1.2l-0.7-0.4l0.6-1.1
				c3-0.2,5.5,2.2,5.5,5.2c0,0.9-0.2,1.8-0.7,2.6c-1.1-0.6-2.3-0.9-3.6-0.9c-1.8,0-3.5,0.6-5,1.7h-8.4c-1.6,0-3.1,0.9-3.8,2.4
				l-0.8,1.5c-0.1,0.3-0.1,0.6,0,0.8c0.2,0.3,0.4,0.4,0.7,0.4h9.1l-0.6,1.7h-12v0c-1.4,0-2.6,1.2-2.6,2.6v4.3c0,0.5,0.4,0.9,0.9,0.9
				h32.7c0.5,0,0.9-0.4,0.9-0.9v-4.3C342.3,64.8,341.2,63.7,339.8,63.7z M332.8,29.4l4.5,2.6l-0.9,1.5c-1-0.6-3.3-1.9-4.5-2.6
				L332.8,29.4z M332.5,33.3l1.5,0.9l-0.9,1.5l-1.5-0.9L332.5,33.3z M327.5,52.2l-7.4-4.3l0.9-1.5c0.8,0.5,5.7,3.3,6.7,3.9
				c0,0,0,0,0,0c0,0,0,0,0,0l0.7,0.4L327.5,52.2z M327.8,48.4l-4.5-2.6l6-10.4c1.7,1,2.8,1.6,3.3,1.9c-0.1-0.1-0.2-0.1-0.2-0.1
				c0,0,0.4,0.2,1.4,0.8C332.9,39.5,328.5,47.1,327.8,48.4z M330.9,46.4l1.8-3.2c4.6,1.1,7.9,5.3,7.9,10.1c0,2.3-0.8,4.5-2.2,6.3
				c-0.5-1.1-1.3-2.1-2.2-2.8c0.6-1.1,1-2.3,1-3.5C337.1,49.7,334.4,46.8,330.9,46.4z M331.1,56.8c2.7,0,5.1,1.8,6,4.3l0.9,2.6
				h-13.7l0.9-2.6C326,58.5,328.4,56.8,331.1,56.8z M315.3,60.2c0.1-0.1,0.6-1.7,2.5-1.7h6.8c-0.4,0.5-0.7,1.1-0.9,1.7H315.3z
				 M340.6,69.7h-30.9v-3.4c0-0.5,0.4-0.9,0.9-0.9c0.7,0,27.8,0,29.2,0c0.5,0,0.9,0.4,0.9,0.9V69.7z"/>
			<path class="st3" d="M332.8,37.4c0.1,0,0.1,0.1,0.1,0.1C332.9,37.4,332.8,37.4,332.8,37.4z"/>
			<path class="st3" d="M332.8,37.4C332.8,37.4,332.8,37.4,332.8,37.4C332.8,37.4,332.8,37.4,332.8,37.4z"/>
			<path class="st3" d="M332.7,37.3C332.7,37.3,332.7,37.3,332.7,37.3C332.7,37.3,332.7,37.3,332.7,37.3z"/>
			<path class="st3" d="M332.7,37.3C332.7,37.3,332.7,37.4,332.7,37.3C332.7,37.4,332.7,37.3,332.7,37.3z"/>
			<path class="st3" d="M332.9,37.5C332.9,37.5,332.9,37.5,332.9,37.5C332.9,37.5,332.9,37.5,332.9,37.5z"/>
			<path class="st3" d="M333.3,37.7C333.3,37.7,333.3,37.7,333.3,37.7C333.3,37.7,333.3,37.7,333.3,37.7z"/>
			<path class="st3" d="M333.2,37.7C333.2,37.7,333.3,37.7,333.2,37.7C333.3,37.7,333.2,37.7,333.2,37.7z"/>
			<path class="st3" d="M333.3,37.7C333.3,37.7,333.3,37.7,333.3,37.7L333.3,37.7z"/>
			<path class="st3" d="M333.1,37.6C333.1,37.6,333.1,37.6,333.1,37.6C333.1,37.6,333.1,37.6,333.1,37.6z"/>
			<path class="st3" d="M333.1,37.6c0,0,0.1,0,0.1,0.1C333.2,37.6,333.2,37.6,333.1,37.6z"/>
			<path class="st3" d="M333.1,37.6C333.1,37.6,333.1,37.6,333.1,37.6C333.1,37.6,333.1,37.6,333.1,37.6z"/>
			<path class="st3" d="M332.9,37.5c0.1,0,0.1,0.1,0.2,0.1C333,37.5,333,37.5,332.9,37.5z"/>
		</g>
	</g>
</g>
<g>
	<g>
		<path class="st3" d="M334.6,60.2h-3.4c-0.5,0-0.9,0.4-0.9,0.9c0,0.5,0.4,0.9,0.9,0.9h3.4c0.5,0,0.9-0.4,0.9-0.9
			C335.4,60.6,335,60.2,334.6,60.2z"/>
	</g>
</g>
</svg>
