<?xml version="1.0" encoding="utf-8"?>
<!-- Generator: Adobe Illustrator 22.1.0, SVG Export Plug-In . SVG Version: 6.00 Build 0)  -->
<svg version="1.1" id="Layer_1" xmlns="http://www.w3.org/2000/svg" xmlns:xlink="http://www.w3.org/1999/xlink" x="0px" y="0px"
	 viewBox="0 0 388 102" style="enable-background:new 0 0 388 102;" xml:space="preserve">
<style type="text/css">
	.st0{fill:none;stroke:#D8DFEA;stroke-width:2;stroke-linecap:round;}
	.st1{fill:none;stroke:#D8DFEA;stroke-width:2;stroke-linecap:round;stroke-dasharray:0.9948,3.9792;}
	.st2{fill:#FFFFFF;}
	.st3{fill:#F1592A;}
</style>
<g>
	<g>
		<line class="st0" x1="387.2" y1="97.5" x2="387.6" y2="97.8"/>
		<polyline class="st1" points="4.2,1.1 257.2,1.1 384,95.1 		"/>
		<line class="st0" x1="1.7" y1="1.1" x2="2.2" y2="1.1"/>
	</g>
</g>
<rect x="300" y="22.8" class="st2" width="47.8" height="50.8"/>
<g>
	<g>
		<g>
			<path class="st3" d="M323.7,27.5c-0.7,0-1.3,0.6-1.3,1.3s0.6,1.3,1.3,1.3c10.7,0,19.4,8.7,19.4,19.4s-8.7,19.4-19.4,19.4
				c-10.7,0-19.4-8.7-19.4-19.4c0-5.2,2.2-10.2,5.9-13.8v2.2c0,0.7,0.6,1.3,1.3,1.3c0.7,0,1.3-0.6,1.3-1.3v-5.2
				c0-0.7-0.6-1.3-1.3-1.3h-5.2c-0.7,0-1.3,0.6-1.3,1.3c0,0.7,0.6,1.3,1.3,1.3h1.9c-4.2,4.2-6.5,9.7-6.5,15.5c0,12.1,9.9,22,22,22
				c12.1,0,22-9.9,22-22S335.8,27.5,323.7,27.5z"/>
		</g>
	</g>
	<g>
		<g>
			<path class="st3" d="M323.7,35.3c-7.8,0-14.2,6.4-14.2,14.2s6.4,14.2,14.2,14.2c7.8,0,14.2-6.4,14.2-14.2S331.5,35.3,323.7,35.3z
				 M332.8,56.7l-0.9-0.9c-0.5-0.5-1.3-0.5-1.8,0s-0.5,1.3,0,1.8l0.9,0.9c-1.7,1.3-3.7,2.2-5.9,2.5v-1.2c0-0.7-0.6-1.3-1.3-1.3
				s-1.3,0.6-1.3,1.3V61c-2.2-0.2-4.3-1.1-5.9-2.5l0.9-0.9c0.5-0.5,0.5-1.3,0-1.8s-1.3-0.5-1.8,0l-0.9,0.9c-1.3-1.7-2.2-3.7-2.5-5.9
				h1.2c0.7,0,1.3-0.6,1.3-1.3s-0.6-1.3-1.3-1.3h-1.2c0.2-2.2,1.1-4.3,2.5-5.9l0.7,0.8c0.5,0.5,1.3,0.5,1.8,0s0.5-1.3,0-1.8
				l-0.8-0.9c1.7-1.3,3.7-2.2,5.9-2.5v1.2c0,0.7,0.6,1.3,1.3,1.3c0.7,0,1.3-0.6,1.3-1.3v-1.2c2.2,0.2,4.3,1.1,5.9,2.5l-0.9,0.9
				c-0.5,0.5-0.5,1.3,0,1.8s1.3,0.5,1.8,0l0.9-0.9c1.3,1.7,2.2,3.7,2.5,5.9H334c-0.7,0-1.3,0.6-1.3,1.3s0.6,1.3,1.3,1.3h1.2
				C335,53,334.1,55.1,332.8,56.7z"/>
		</g>
	</g>
	<g>
		<g>
			<path class="st3" d="M327.2,51.2L325,49v-4.6c0-0.7-0.6-1.3-1.3-1.3c-0.7,0-1.3,0.6-1.3,1.3v5.2c0,0.3,0.1,0.7,0.4,0.9l2.6,2.6
				c0.5,0.5,1.3,0.5,1.8,0C327.7,52.5,327.7,51.7,327.2,51.2z"/>
		</g>
	</g>
</g>
</svg>
