<?xml version="1.0" encoding="utf-8"?>
<!-- Generator: Adobe Illustrator 22.1.0, SVG Export Plug-In . SVG Version: 6.00 Build 0)  -->
<svg version="1.1" id="Layer_1" xmlns="http://www.w3.org/2000/svg" xmlns:xlink="http://www.w3.org/1999/xlink" x="0px" y="0px"
	 viewBox="0 0 388 102" style="enable-background:new 0 0 388 102;" xml:space="preserve">
<style type="text/css">
	.st0{fill:none;stroke:#D8DFEA;stroke-width:2;stroke-linecap:round;}
	.st1{fill:none;stroke:#D8DFEA;stroke-width:2;stroke-linecap:round;stroke-dasharray:0.9948,3.9792;}
	.st2{fill:#FFFFFF;}
	.st3{fill:#F1592A;}
</style>
<g>
	<g>
		<line class="st0" x1="2.1" y1="1.4" x2="1.7" y2="1.1"/>
		<polyline class="st1" points="385.1,97.8 132.1,97.8 5.3,3.8 		"/>
		<line class="st0" x1="387.6" y1="97.8" x2="387.1" y2="97.8"/>
	</g>
</g>
<rect x="37.3" y="21" class="st2" width="52.1" height="55.1"/>
<g>
	<g>
		<path class="st3" d="M80.7,62L80,61.7c3.6-4,5.6-9.2,5.6-14.7c0-4.5-1.4-8.8-3.8-12.4c0-0.1-0.1-0.1-0.1-0.2
			c-1.1-1.6-2.4-3-3.8-4.2c-0.3-0.2-0.7-0.2-1,0.1s-0.2,0.7,0.1,1c1.2,1,2.2,2.1,3.1,3.3c-1.5,0.6-3.2,1.1-5.2,1.4
			c-0.5-1.6-1.2-3.1-2-4.5c-1.1-1.8-2.3-3.3-3.6-4.4c2.1,0.6,4,1.5,5.8,2.7c0.3,0.2,0.7,0.1,1-0.2c0.2-0.3,0.1-0.7-0.2-1
			C72.3,26.3,68,25,63.6,25c-5.9,0-11.4,2.3-15.6,6.4c-4.2,4.2-6.4,9.7-6.4,15.6c0,5.5,2,10.7,5.6,14.7L46.5,62
			c-0.3,0.1-2.5,1-2.5,3.8v2.5c0,0.4,0.3,0.7,0.7,0.7h4h0.6h0.7h3.6H55c0,0,0.1,0,0.1,0c0,0,0.1,0,0.1,0H58c0.4,0,0.7-0.3,0.7-0.7
			s-0.3-0.7-0.7-0.7h-2.1v-2.4c0-2.6,2-3.3,2.1-3.3c0,0,0,0,0,0l3.4-1.3c0,0,0,0,0,0l1.8,1.8c0.1,0.1,0.3,0.2,0.5,0.2c0,0,0,0,0,0
			c0.2,0,0.4-0.1,0.5-0.2l1.7-1.8l3.4,1.4c0,0,0,0,0,0c0.1,0,2.1,0.8,2.1,3.3v2.4h-5.1h-5.4h-0.8c-0.4,0-0.7,0.3-0.7,0.7
			c0,0.4,0.3,0.7,0.7,0.7h0.8h5.4h5.8h0h0H73h0.6h0.7h3.6h4.6c0.4,0,0.7-0.3,0.7-0.7v-2.5C83.2,63,81,62.1,80.7,62z M78.6,61.1
			l-0.7-0.3v-0.4c0.8-0.4,1.3-1.2,1.6-2c1-0.1,1.8-0.9,1.8-2c0-0.6-0.3-1.2-0.7-1.5v-1.2c0-2.4-1.8-4.4-4.1-4.6c0-0.5,0-0.9,0.1-1.4
			h7.6C84.1,52.7,82.1,57.5,78.6,61.1z M76.1,59.6h-0.6c-1.2,0-2.2-1-2.2-2.2v-1.8l0,0c0.9-0.1,2.5-0.4,3.7-1.4
			c0.3,0.5,0.7,1,1.3,1.3v2C78.3,58.6,77.3,59.6,76.1,59.6z M76.5,60.9v0.4l-0.8,0.8L75,61.4v-0.5c0.1,0,0.3,0,0.4,0h0.6
			C76.3,61,76.4,61,76.5,60.9z M72.6,54.2C72.6,54.2,72.5,54.2,72.6,54.2C72.5,54.2,72.5,54.2,72.6,54.2
			C72.5,54.2,72.5,54.2,72.6,54.2c-0.1,0-0.1,0-0.1,0c0,0,0,0,0,0c0,0,0,0,0,0c0,0,0,0,0,0v-0.5c0-1.8,1.5-3.3,3.3-3.3h0.3
			c1.8,0,3.3,1.5,3.3,3.3v0.4c0,0,0,0,0,0c0,0,0,0,0,0c-1-0.2-1.3-1.5-1.3-1.5c-0.1-0.3-0.3-0.5-0.5-0.5c-0.3-0.1-0.5,0.1-0.7,0.3
			C75.4,54.2,72.6,54.2,72.6,54.2z M79.7,57V56c0.1,0.1,0.2,0.3,0.2,0.5S79.9,56.9,79.7,57z M80.9,35.8c2,3.1,3.2,6.7,3.3,10.5h-7.6
			c-0.1-3.1-0.5-6.1-1.3-8.9C77.5,37,79.4,36.4,80.9,35.8z M75.2,46.3h-7.1c0,0,0,0,0,0c-0.9-1-2.3-1.7-3.8-1.9v-6
			c3.4,0,6.7-0.3,9.6-0.8C74.7,40.3,75.1,43.3,75.2,46.3z M69.1,53.6c0,0.4-0.3,0.8-0.7,0.9v-1.7C68.8,52.8,69.1,53.2,69.1,53.6z
			 M64.3,26.4c2.8,0.3,5.4,2.3,7.4,5.9c0.7,1.2,1.3,2.6,1.8,4c-2.8,0.5-5.9,0.7-9.2,0.8L64.3,26.4L64.3,26.4z M63.9,45.8
			c2.4,0,4.3,1.9,4.3,4.3V51c0,0,0,0,0,0c0,0,0,0,0,0c0,0,0,0,0,0c0,0,0,0,0,0c0,0,0,0,0,0c0,0,0,0,0,0c0,0,0,0,0,0c0,0,0,0,0,0
			c0,0,0,0,0,0c0,0,0,0,0,0c-1.3-0.3-1.7-2-1.7-2c-0.1-0.3-0.3-0.5-0.5-0.5c-0.3-0.1-0.5,0.1-0.7,0.3c-1.6,2.2-5.2,2.3-5.3,2.3
			c0,0,0,0,0,0c0,0,0,0,0,0c0,0,0,0-0.1,0c0,0,0,0,0,0c0,0,0,0,0,0c0,0,0,0,0,0c0,0,0,0,0,0c0,0,0,0,0,0c0,0,0,0,0,0c0,0,0,0,0,0
			c0,0,0,0,0,0c0,0,0,0,0,0c0,0,0,0,0,0c0,0,0,0,0,0c0,0,0,0,0,0c0,0,0,0,0,0v-0.9c0-2.4,1.9-4.3,4.3-4.3L63.9,45.8L63.9,45.8z
			 M52,46.3c0.1-3.1,0.5-6,1.3-8.6c2.9,0.5,6.2,0.8,9.6,0.8v6c-1.5,0.1-2.8,0.8-3.7,1.9c0,0-0.1,0-0.1,0L52,46.3L52,46.3z
			 M58.9,52.7v1.7c-0.4-0.1-0.7-0.4-0.7-0.9C58.3,53.1,58.5,52.8,58.9,52.7z M62.9,26.4v10.7c-3.3,0-6.4-0.3-9.2-0.8
			c0.5-1.5,1.1-2.8,1.8-4C57.6,28.8,60.2,26.7,62.9,26.4z M57.9,27.2c-1.3,1.1-2.5,2.6-3.6,4.4c-0.8,1.4-1.5,2.9-2,4.5
			c-2-0.4-3.7-0.9-5.2-1.4C49.8,31.1,53.6,28.4,57.9,27.2z M46.3,35.8c1.6,0.6,3.5,1.2,5.6,1.6c-0.8,2.7-1.2,5.8-1.3,8.9H43
			C43.2,42.4,44.3,38.9,46.3,35.8z M50.8,60.9c0.1,0,0.3,0,0.4,0h0.6c0.1,0,0.3,0,0.4,0v0.4l-0.8,0.8l-0.7-0.7
			C50.8,61.4,50.8,60.9,50.8,60.9z M51.9,59.6h-0.6c-1.2,0-2.2-1-2.2-2.2v-1.8c0.9-0.1,2.5-0.4,3.7-1.4c0.3,0.5,0.7,1,1.3,1.3v2
			C54.1,58.6,53.1,59.6,51.9,59.6z M53.7,52.7c-0.1-0.3-0.3-0.5-0.5-0.5c-0.3-0.1-0.5,0.1-0.7,0.3c-1.3,1.7-4.1,1.8-4.1,1.8
			c0,0,0,0,0,0c0,0,0,0-0.1,0c0,0,0,0,0,0c0,0,0,0,0,0c0,0,0,0,0,0c0,0,0,0,0,0c0,0,0,0,0,0v-0.5c0-1.8,1.5-3.3,3.3-3.3h0.3
			c1.8,0,3.3,1.5,3.3,3.3v0.4h0c0,0,0,0,0,0c0,0,0,0,0,0C54,54,53.7,52.7,53.7,52.7z M43,47.7h7.6c0,0.5,0,1,0.1,1.4
			c-2.3,0.3-4,2.3-4,4.6V55c-0.4,0.4-0.7,0.9-0.7,1.5c0,1,0.8,1.9,1.8,2c0.3,0.8,0.9,1.6,1.6,2v0.4l-0.8,0.3
			C45.2,57.5,43.2,52.7,43,47.7z M47.6,56v1c-0.2-0.1-0.3-0.3-0.3-0.5C47.4,56.3,47.5,56.1,47.6,56z M54.5,65.2v2.4h-0.8h-3.6h-0.7
			h-0.6h-3.3v-1.8c0-1.9,1.5-2.5,1.6-2.5c0,0,0,0,0,0l2.6-1l1.4,1.4c0.1,0.1,0.3,0.2,0.5,0.2c0,0,0,0,0,0c0.2,0,0.4-0.1,0.5-0.2
			l1.3-1.4l1.6,0.7C54.7,63.5,54.5,64.3,54.5,65.2z M61.2,59.1l-3.7,1.4c-0.5,0.2-1.1,0.5-1.7,1.1l-2.1-0.8v-0.4
			c0.8-0.4,1.3-1.2,1.6-2c1-0.1,1.8-0.9,1.8-2c0-0.6-0.3-1.2-0.7-1.5v-1.2c0-2.5-1.9-4.5-4.3-4.7c0-0.5,0-0.9-0.1-1.4h6.3
			c-0.3,0.7-0.5,1.6-0.5,2.4v1.6c-0.6,0.4-0.9,1.1-0.9,1.8c0,1.2,1,2.3,2.2,2.3c0.3,1.1,1.1,2,2.1,2.6L61.2,59.1L61.2,59.1z
			 M55.5,57V56c0.1,0.1,0.2,0.3,0.2,0.5C55.7,56.7,55.6,56.9,55.5,57z M64.8,59.6C64.8,59.6,64.8,59.6,64.8,59.6L64.8,59.6l-1.1,1.2
			l-1.1-1.1v-0.9c0.2,0,0.5,0.1,0.7,0.1h0.8c0.2,0,0.5,0,0.7-0.1V59.6z M64.1,57.6h-0.8c-1.6,0-3-1.3-3-3v-2.5
			c1.1-0.1,3.3-0.5,4.9-1.9c0.3,0.6,0.9,1.4,1.8,1.8v2.6C67,56.2,65.7,57.6,64.1,57.6z M71.5,61.7c-0.6-0.6-1.2-1-1.7-1.2l-3.6-1.4
			v-0.7c1-0.5,1.7-1.5,2.1-2.6c1.2,0,2.2-1,2.2-2.3c0-0.7-0.4-1.4-0.9-1.8v-1.6c0-0.9-0.2-1.7-0.5-2.4h6.2c0,0.5,0,0.9-0.1,1.4
			c-2.4,0.2-4.2,2.2-4.2,4.7V55c-0.4,0.4-0.7,0.9-0.7,1.5c0,1,0.8,1.9,1.8,2c0.3,0.8,0.9,1.6,1.6,2v0.4L71.5,61.7z M71.9,56v1
			c-0.2-0.1-0.3-0.3-0.3-0.5C71.6,56.3,71.7,56.1,71.9,56z M81.8,67.6h-3.9h-3.6h-0.7H73h-0.2v-2.4c0-0.9-0.2-1.7-0.5-2.3l1.6-0.6
			l1.4,1.4c0.1,0.1,0.3,0.2,0.5,0.2c0,0,0,0,0,0c0.2,0,0.4-0.1,0.5-0.2l1.3-1.4l2.6,1c0,0,0,0,0,0c0.1,0,1.6,0.6,1.6,2.5L81.8,67.6
			L81.8,67.6z"/>
	</g>
</g>
</svg>
