<?xml version="1.0" encoding="utf-8"?>
<!-- Generator: Adobe Illustrator 22.1.0, SVG Export Plug-In . SVG Version: 6.00 Build 0)  -->
<svg version="1.1" id="Layer_1" xmlns="http://www.w3.org/2000/svg" xmlns:xlink="http://www.w3.org/1999/xlink" x="0px" y="0px"
	 viewBox="0 0 388 102" style="enable-background:new 0 0 388 102;" xml:space="preserve">
<style type="text/css">
	.st0{fill:none;stroke:#D8DFEA;stroke-width:2;stroke-linecap:round;}
	.st1{fill:none;stroke:#D8DFEA;stroke-width:2;stroke-linecap:round;stroke-dasharray:0.9948,3.9792;}
	.st2{fill:#FFFFFF;}
	.st3{fill:#F1592A;}
</style>
<g>
	<g>
		<line class="st0" x1="1.7" y1="97.8" x2="2.1" y2="97.5"/>
		<polyline class="st1" points="5.3,95.1 132.1,1.1 385.1,1.1 		"/>
		<line class="st0" x1="387.1" y1="1.1" x2="387.6" y2="1.1"/>
	</g>
</g>
<rect x="36.2" y="21" class="st2" width="51.2" height="55.1"/>
<g>
	<path class="st3" d="M53.8,53.1L46,66.4c-0.1,0.1-0.1,0.3-0.1,0.5c0,0.5,0.4,0.9,0.9,0.9h6.4v-1.8h-4.8l7-11.8L53.8,53.1z"/>
	<path class="st3" d="M84,48.5H69.7c-2,0-3.7,1.6-3.7,3.7v10.6l-8.3-12.8v-6.4c0.9-0.5,1.9-0.9,3-1.2c0.4-0.1,0.7-0.5,0.7-0.9V29.2
		H66v12.2c0,0.4,0.3,0.8,0.7,0.9c3.2,0.6,6.1,2.4,8.2,4.9l1.4-1.1c-2.2-2.7-5.1-4.6-8.5-5.4V28.3c0-0.5-0.4-0.9-0.9-0.9h-6.4
		c-0.5,0-0.9,0.4-0.9,0.9V41c-0.6,0.2-1.2,0.4-1.8,0.7v-3.2c0-0.5-0.4-0.9-0.9-0.9h-4.6c-0.5,0-0.9,0.4-0.9,0.9v11.7l-8.5,14.5
		c-0.4,0.7-0.6,1.5-0.6,2.3c0,2.5,2,4.5,4.5,4.5h16.7c0.9,0,1.7-0.2,2.4-0.7c0.5-0.3,0.8-0.7,1.2-1.1c0.8,1.1,2.2,1.8,3.6,1.8h8.3
		c2.5,0,4.6-2.1,4.6-4.6V54.4l2.1-2.1c0.4-0.4,0.6-1,0.6-1.6C86.2,49.5,85.2,48.5,84,48.5z M63.4,69.6H46.7c-0.5,0-1-0.1-1.4-0.4
		c-1.3-0.8-1.7-2.4-1-3.7l8.7-14.7c0.1-0.1,0.1-0.3,0.1-0.5v-11h2.8v11c0,0.2,0.1,0.3,0.1,0.5l9.5,14.7C65.9,66,66,66.5,66,67
		C66,68.4,64.9,69.6,63.4,69.6z M84.3,51l-2.4,2.4c-0.2,0.2-0.3,0.4-0.3,0.6v12.8c0,1.5-1.2,2.8-2.8,2.8h-8.3
		c-1.5,0-2.8-1.2-2.8-2.8V52.2c0-1,0.8-1.8,1.8-1.8H84c0.1,0,0.2,0,0.3,0.1C84.4,50.6,84.4,50.8,84.3,51z"/>
	<path class="st3" d="M77.9,65.9h-2.8v1.8h3.7c0.5,0,0.9-0.4,0.9-0.9V54h-1.8V65.9z"/>
	<path class="st3" d="M77.9,43.5c0,1.8,1.4,3.2,3.2,3.2c1.8,0,3.2-1.4,3.2-3.2s-1.4-3.2-3.2-3.2S77.9,41.7,77.9,43.5z M81.2,42.1
		c0.8,0,1.4,0.6,1.4,1.4c0,0.8-0.6,1.4-1.4,1.4s-1.4-0.6-1.4-1.4C79.8,42.7,80.4,42.1,81.2,42.1z"/>
	<path class="st3" d="M77.9,39.3c1.5,0,2.8-1.2,2.8-2.8c0-1.5-1.2-2.8-2.8-2.8c-1.5,0-2.8,1.2-2.8,2.8
		C75.2,38.1,76.4,39.3,77.9,39.3z M77.9,35.7c0.5,0,0.9,0.4,0.9,0.9c0,0.5-0.4,0.9-0.9,0.9S77,37.1,77,36.6
		C77,36.1,77.4,35.7,77.9,35.7z"/>
	<path class="st3" d="M45.4,41.2c1.8,0,3.2-1.4,3.2-3.2c0-1.8-1.4-3.2-3.2-3.2c-1.8,0-3.2,1.4-3.2,3.2
		C42.2,39.7,43.6,41.2,45.4,41.2z M45.4,36.6c0.8,0,1.4,0.6,1.4,1.4s-0.6,1.4-1.4,1.4c-0.8,0-1.4-0.6-1.4-1.4
		C44,37.2,44.6,36.6,45.4,36.6z"/>
	<path class="st3" d="M49.5,33.8c1.5,0,2.8-1.2,2.8-2.8c0-1.5-1.2-2.8-2.8-2.8c-1.5,0-2.8,1.2-2.8,2.8C46.8,32.6,48,33.8,49.5,33.8z
		 M49.5,30.2c0.5,0,0.9,0.4,0.9,0.9S50,32,49.5,32c-0.5,0-0.9-0.4-0.9-0.9C48.6,30.6,49,30.2,49.5,30.2z"/>
	<rect x="69.7" y="54" class="st3" width="2.8" height="1.8"/>
	<rect x="69.7" y="57.7" class="st3" width="1.8" height="1.8"/>
	<rect x="69.7" y="61.3" class="st3" width="2.8" height="1.8"/>
	<rect x="69.7" y="65" class="st3" width="1.8" height="1.8"/>
	<rect x="44" y="43.9" class="st3" width="1.8" height="1.8"/>
	<rect x="46.8" y="48.5" class="st3" width="1.8" height="1.8"/>
	<rect x="62.4" y="52.2" class="st3" width="1.8" height="1.8"/>
	<rect x="60.5" y="48.5" class="st3" width="1.8" height="1.8"/>
	<rect x="59.6" y="44.8" class="st3" width="1.8" height="1.8"/>
	<rect x="60.5" y="65" class="st3" width="1.8" height="1.8"/>
	<rect x="57.8" y="61.3" class="st3" width="1.8" height="1.8"/>
</g>
</svg>
